<svg width="32" height="32" viewBox="0 0 32 32" fill="none" xmlns="http://www.w3.org/2000/svg">
<path d="M15.64 1.00183C24.1255 1.00183 31 7.71733 31 16.0018C31 24.2863 24.124 31.0018 15.64 31.0018C10.8535 31.0018 6.427 28.8463 3.535 25.2328C3.45393 25.1319 3.39397 25.0157 3.35869 24.8912C3.3234 24.7666 3.31351 24.6362 3.3296 24.5078C3.3457 24.3793 3.38744 24.2554 3.45236 24.1434C3.51727 24.0314 3.60404 23.9336 3.7075 23.8558C3.91847 23.6953 4.18365 23.6233 4.44684 23.6549C4.71004 23.6865 4.95058 23.8194 5.1175 24.0253C7.6345 27.1678 11.4775 29.0398 15.6415 29.0398C23.014 29.0398 28.9915 23.2018 28.9915 16.0018C28.9915 8.80183 23.014 2.96383 15.6415 2.96383C13.6522 2.95618 11.686 3.39018 9.88479 4.23451C8.08356 5.07883 6.49219 6.31244 5.2255 7.84633C5.05594 8.0504 4.81353 8.18036 4.54973 8.20865C4.28592 8.23693 4.02147 8.16131 3.8125 7.99783C3.70994 7.91867 3.62435 7.81969 3.56082 7.70678C3.49729 7.59387 3.45712 7.46933 3.44271 7.34058C3.42829 7.21183 3.43993 7.08149 3.47691 6.95733C3.5139 6.83317 3.57548 6.71771 3.658 6.61783C6.5545 3.09283 10.9225 1.00183 15.6415 1.00183H15.64ZM16.4575 11.2948L20.518 15.3553C20.911 15.7483 20.9185 16.3753 20.5345 16.7593L16.57 20.7268C16.4767 20.8181 16.3663 20.8902 16.2451 20.9388C16.1239 20.9874 15.9944 21.0116 15.8638 21.01C15.7333 21.0085 15.6043 20.9813 15.4843 20.9298C15.3643 20.8784 15.2556 20.8038 15.1645 20.7103C15.0711 20.6191 14.9967 20.5103 14.9454 20.3903C14.8941 20.2702 14.8669 20.1412 14.8655 20.0107C14.8641 19.8801 14.8885 19.7506 14.9372 19.6295C14.986 19.5084 15.0581 19.398 15.1495 19.3048L17.47 16.9828L2.005 16.9843C1.87447 16.9859 1.74491 16.9617 1.62373 16.9132C1.50255 16.8647 1.39213 16.7927 1.29878 16.7015C1.20544 16.6102 1.131 16.5014 1.07973 16.3814C1.02847 16.2613 1.00137 16.1324 1 16.0018C1 15.4603 1.45 15.0208 2.005 15.0208H17.407L15.07 12.6823C14.9766 12.5911 14.9022 12.4823 14.8509 12.3623C14.7996 12.2422 14.7724 12.1132 14.771 11.9827C14.7696 11.8521 14.794 11.7226 14.8427 11.6015C14.8915 11.4804 14.9636 11.37 15.055 11.2768C15.2433 11.0933 15.4967 10.992 15.7597 10.9951C16.0226 10.9982 16.2735 11.1055 16.4575 11.2933V11.2948Z" fill="#FF4A4A" stroke="#FF4A4A"/>
</svg>
