<svg width="16" height="17" viewBox="0 0 16 17" fill="none" xmlns="http://www.w3.org/2000/svg">
<path d="M11.5453 0.825015C12.3573 0.862348 12.9187 0.981682 13.4373 1.18301C13.9291 1.36689 14.3743 1.65688 14.7413 2.03235C15.1168 2.39934 15.4068 2.84456 15.5907 3.33635C15.792 3.85568 15.9113 4.41635 15.9487 5.22835C15.9947 6.23502 16 6.58968 16 8.77368C16 10.9577 15.9947 11.3123 15.9487 12.319C15.9113 13.131 15.792 13.6923 15.5907 14.2117C15.4067 14.7032 15.1167 15.1482 14.7413 15.515C14.3744 15.8905 13.9291 16.1805 13.4373 16.3643C12.918 16.5657 12.3573 16.685 11.5453 16.7223C10.5387 16.7683 10.1847 16.7737 8 16.7737C5.81533 16.7737 5.46067 16.7683 4.45467 16.7223C3.64267 16.685 3.08133 16.5657 2.562 16.3643C2.07044 16.1804 1.62545 15.8904 1.25867 15.515C0.883194 15.148 0.593207 14.7028 0.409333 14.211C0.208 13.6917 0.0886667 13.131 0.0513333 12.319C0.00533333 11.3137 0 10.959 0 8.77368C0 6.58902 0.00533333 6.23368 0.0513333 5.22835C0.0886667 4.41635 0.208 3.85502 0.409333 3.33635C0.593207 2.84456 0.883194 2.39934 1.25867 2.03235C1.62547 1.65696 2.07045 1.36698 2.562 1.18301C3.082 0.981682 3.64267 0.862348 4.45467 0.825015C5.46 0.779015 5.81467 0.773682 8 0.773682C10.1847 0.773682 10.54 0.779015 11.5453 0.825015ZM8 2.55168C5.84 2.55168 5.50933 2.55635 4.53533 2.60101C3.91733 2.62901 3.54667 2.70768 3.206 2.84035C2.916 2.95368 2.73133 3.07368 2.51533 3.28902C2.29933 3.50502 2.17933 3.68968 2.06667 3.97968C1.93467 4.31968 1.85533 4.69102 1.82733 5.30902C1.78267 6.28302 1.778 6.61368 1.778 8.77368C1.778 10.9337 1.78267 11.2643 1.82733 12.2383C1.85533 12.8563 1.934 13.227 2.06667 13.567C2.18 13.8577 2.3 14.0423 2.51533 14.2583C2.73133 14.4743 2.916 14.5943 3.206 14.707C3.546 14.839 3.91733 14.9183 4.53533 14.9463C5.51 14.991 5.84067 14.9957 8 14.9957C10.16 14.9957 10.49 14.991 11.4647 14.9463C12.0827 14.9183 12.4533 14.8397 12.794 14.707C13.084 14.5937 13.2687 14.4737 13.4847 14.2583C13.7007 14.0423 13.8207 13.8577 13.9333 13.5677C14.0653 13.2277 14.1447 12.8563 14.1727 12.2383C14.2173 11.2637 14.222 10.933 14.222 8.77368C14.222 6.61435 14.2173 6.28368 14.1727 5.30902C14.1447 4.69102 14.066 4.32035 13.9333 3.98035C13.8391 3.7184 13.6855 3.4818 13.4847 3.28902C13.2919 3.08816 13.0553 2.9346 12.7933 2.84035C12.4533 2.70835 12.082 2.62901 11.464 2.60101C10.49 2.55635 10.1593 2.55168 7.99933 2.55168H8ZM8 12.9217C6.89988 12.9217 5.84482 12.4847 5.06692 11.7068C4.28902 10.9289 3.852 9.8738 3.852 8.77368C3.852 7.67356 4.28902 6.6185 5.06692 5.8406C5.84482 5.0627 6.89988 4.62568 8 4.62568C9.10012 4.62568 10.1552 5.0627 10.9331 5.8406C11.711 6.6185 12.148 7.67356 12.148 8.77368C12.148 9.8738 11.711 10.9289 10.9331 11.7068C10.1552 12.4847 9.10012 12.9217 8 12.9217ZM8 11.1443C8.62874 11.1443 9.23173 10.8946 9.67632 10.45C10.1209 10.0054 10.3707 9.40242 10.3707 8.77368C10.3707 8.14494 10.1209 7.54195 9.67632 7.09737C9.23173 6.65278 8.62874 6.40302 8 6.40302C7.37126 6.40302 6.76827 6.65278 6.32369 7.09737C5.8791 7.54195 5.62933 8.14494 5.62933 8.77368C5.62933 9.40242 5.8791 10.0054 6.32369 10.45C6.76827 10.8946 7.37126 11.1443 8 11.1443ZM12.148 5.51435C11.9122 5.51435 11.6861 5.42069 11.5194 5.25397C11.3527 5.08725 11.259 4.86113 11.259 4.62535C11.259 4.38957 11.3527 4.16345 11.5194 3.99673C11.6861 3.83001 11.9122 3.73635 12.148 3.73635C12.3838 3.73635 12.6099 3.83001 12.7766 3.99673C12.9433 4.16345 13.037 4.38957 13.037 4.62535C13.037 4.86113 12.9433 5.08725 12.7766 5.25397C12.6099 5.42069 12.3838 5.51435 12.148 5.51435Z" fill="#65DFFB"/>
</svg>
