<svg width="66" height="24" viewBox="0 0 66 24" fill="none" xmlns="http://www.w3.org/2000/svg">
<path fill-rule="evenodd" clip-rule="evenodd" d="M0.5625 11.9274C0.562499 11.5959 0.694196 11.2779 0.928616 11.0435C1.16304 10.8091 1.48098 10.6774 1.8125 10.6774L61.295 10.6774L53.4275 2.81238C53.1928 2.57766 53.0609 2.25931 53.0609 1.92737C53.0609 1.59543 53.1928 1.27709 53.4275 1.04238C53.6622 0.807659 53.9806 0.675796 54.3125 0.675796C54.6444 0.675796 54.9628 0.807659 55.1975 1.04238L65.1975 11.0424C65.3139 11.1585 65.4063 11.2964 65.4693 11.4483C65.5323 11.6002 65.5647 11.763 65.5647 11.9274C65.5647 12.0918 65.5323 12.2546 65.4693 12.4065C65.4063 12.5583 65.3139 12.6963 65.1975 12.8124L55.1975 22.8124C54.9628 23.0471 54.6444 23.179 54.3125 23.179C53.9806 23.179 53.6622 23.0471 53.4275 22.8124C53.1928 22.5777 53.0609 22.2593 53.0609 21.9274C53.0609 21.5954 53.1928 21.2771 53.4275 21.0424L61.295 13.1774L1.8125 13.1774C1.48098 13.1774 1.16304 13.0457 0.928616 12.8113C0.694196 12.5768 0.5625 12.2589 0.5625 11.9274Z" fill="#232323"/>
</svg>
