<svg width="36" height="36" viewBox="0 0 36 36" fill="none" xmlns="http://www.w3.org/2000/svg">
<path d="M9.42342 24.9957C8.54637 25.1242 7.10262 25.3634 6.14217 24.2738C5.18172 23.1841 4.35116 20.553 3.98612 18.2014C3.44745 14.7356 3.98202 11.8146 5.49002 9.97711C6.3787 8.89498 7.54491 8.26812 8.86288 8.16832C9.99149 8.0815 11.6779 8.5231 13.3062 11.1208C14.3262 12.7484 15.102 14.9106 15.4349 17.0523C15.8369 19.6377 16.2286 22.3966 14.858 23.3858C14.0848 23.9443 13.5298 24.1378 12.218 24.4502C11.1392 24.7065 10.3012 24.8665 9.42342 24.9957Z" fill="#66DC2D"/>
<path d="M7.86384 27.2194L15.3075 25.684C15.9364 25.5541 16.4409 25.9 16.6747 26.9364C17.4417 30.3379 16.3425 34.4081 12.8999 34.4081C9.63982 34.4081 7.46736 30.692 7.11257 28.6946C6.95056 27.7888 7.18162 27.3595 7.86384 27.2194Z" fill="#66DC2D"/>
<path d="M23.7826 17.8884C22.4708 17.5774 21.9157 17.3825 21.1425 16.824C19.7719 15.8349 20.1636 13.0759 20.5656 10.4905C20.8985 8.34884 21.6744 6.1839 22.6943 4.55899C24.3212 1.96134 26.0077 1.51974 27.1377 1.60655C28.4543 1.70704 29.6211 2.33253 30.5098 3.41466C32.0192 5.25216 32.5538 8.17315 32.0137 11.639C31.648 13.9905 30.8202 16.6128 29.8543 17.7113C28.8883 18.8099 27.4528 18.5617 26.573 18.4332C25.6932 18.3047 24.8606 18.1441 23.7826 17.8884Z" fill="#66DC2D"/>
<path d="M28.1362 20.6569L20.6925 19.1215C20.0636 18.9916 19.5592 19.3375 19.3254 20.3739C18.5591 23.7754 19.6583 27.8456 23.1008 27.8456C26.3609 27.8456 28.5334 24.1295 28.8882 22.1321C29.0495 21.2263 28.8184 20.797 28.1362 20.6569Z" fill="#66DC2D"/>
</svg>
